<svg xmlns="http://www.w3.org/2000/svg" xmlns:xlink="http://www.w3.org/1999/xlink" width="1440" zoomAndPan="magnify" viewBox="0 0 1080 449.999984" height="600" preserveAspectRatio="xMidYMid meet" version="1.0"><defs><clipPath id="0a29d67699"><path d="M 366.617188 34 L 713.117188 34 L 713.117188 415.695312 L 366.617188 415.695312 Z M 366.617188 34 " clip-rule="nonzero"/></clipPath><clipPath id="4e7c7af066"><path d="M 240.816406 320.472656 L 302.316406 320.472656 L 302.316406 381.222656 L 240.816406 381.222656 Z M 240.816406 320.472656 " clip-rule="nonzero"/></clipPath></defs><g clip-path="url(#0a29d67699)"><path fill="#000000" d="M 712.773438 133.65625 L 678.332031 113.769531 L 643.886719 93.882812 L 609.4375 73.996094 L 540.546875 34.222656 C 540.207031 34.023438 539.785156 34.023438 539.445312 34.222656 L 505.003906 54.109375 L 436.113281 93.882812 L 401.664062 113.769531 L 367.21875 133.65625 C 366.878906 133.851562 366.671875 134.214844 366.671875 134.609375 L 366.671875 315.382812 C 366.671875 315.777344 366.878906 316.140625 367.21875 316.335938 L 401.664062 336.222656 L 436.113281 356.109375 L 505.003906 395.882812 L 539.445312 415.769531 C 539.617188 415.871094 539.808594 415.917969 539.996094 415.917969 C 540.1875 415.917969 540.378906 415.871094 540.546875 415.769531 L 609.4375 375.996094 L 643.886719 356.109375 L 678.332031 336.222656 L 712.773438 316.335938 C 713.113281 316.140625 713.324219 315.777344 713.324219 315.382812 L 713.324219 134.609375 C 713.324219 134.214844 713.113281 133.851562 712.773438 133.65625 Z M 678.882812 263.597656 L 711.125 244.980469 L 711.125 278.59375 L 678.882812 297.210938 Z M 401.117188 297.210938 L 368.871094 278.59375 L 368.871094 244.980469 L 401.117188 263.597656 Z M 642.234375 282.210938 L 609.988281 300.832031 L 609.988281 267.214844 L 642.234375 248.597656 Z M 607.789062 302.101562 L 575.542969 320.714844 L 575.542969 287.105469 L 607.789062 268.484375 Z M 472.207031 232.332031 L 504.453125 250.949219 L 504.453125 284.5625 L 472.207031 265.945312 Z M 506.652344 216.0625 L 538.898438 234.679688 L 538.898438 268.292969 L 506.652344 249.675781 Z M 507.753906 214.15625 L 539.996094 195.539062 L 572.242188 214.15625 L 539.996094 232.773438 Z M 541.097656 234.679688 L 573.34375 216.0625 L 573.34375 249.675781 L 541.097656 268.292969 Z M 607.789062 229.789062 L 575.542969 248.40625 L 575.542969 214.792969 L 607.789062 196.175781 Z M 575.542969 250.949219 L 607.789062 232.332031 L 607.789062 265.945312 L 575.542969 284.5625 Z M 574.441406 212.886719 L 542.199219 194.269531 L 574.441406 175.652344 L 606.6875 194.269531 Z M 507.753906 174.382812 L 539.996094 155.765625 L 572.242188 174.382812 L 539.996094 193 Z M 537.796875 194.269531 L 505.554688 212.886719 L 473.308594 194.269531 L 505.554688 175.652344 Z M 472.207031 196.175781 L 504.453125 214.792969 L 504.453125 248.40625 L 472.207031 229.789062 Z M 506.652344 252.21875 L 538.898438 270.835938 L 538.898438 304.449219 L 506.652344 285.832031 Z M 541.097656 270.835938 L 573.34375 252.21875 L 573.34375 285.832031 L 541.097656 304.449219 Z M 642.234375 246.054688 L 609.988281 264.675781 L 609.988281 231.0625 L 642.234375 212.441406 Z M 642.234375 209.902344 L 609.988281 228.519531 L 609.988281 194.90625 L 642.234375 176.289062 Z M 437.761719 212.441406 L 470.007812 231.0625 L 470.007812 264.675781 L 437.761719 246.054688 Z M 437.761719 248.597656 L 470.007812 267.214844 L 470.007812 300.832031 L 437.761719 282.210938 Z M 472.207031 268.484375 L 504.453125 287.105469 L 504.453125 320.714844 L 472.207031 302.101562 Z M 608.886719 193 L 576.644531 174.382812 L 608.886719 155.765625 L 641.136719 174.382812 Z M 574.441406 173.113281 L 542.199219 154.496094 L 574.441406 135.878906 L 606.6875 154.496094 Z M 507.753906 134.609375 L 539.996094 115.992188 L 572.242188 134.609375 L 539.996094 153.226562 Z M 537.796875 154.496094 L 505.554688 173.113281 L 473.308594 154.496094 L 505.554688 135.878906 Z M 471.109375 193 L 438.863281 174.382812 L 471.109375 155.765625 L 503.351562 174.382812 Z M 437.761719 176.289062 L 470.007812 194.90625 L 470.007812 228.519531 L 437.761719 209.902344 Z M 506.652344 288.375 L 538.898438 306.992188 L 538.898438 340.601562 L 506.652344 321.984375 Z M 541.097656 306.992188 L 573.34375 288.375 L 573.34375 321.984375 L 541.097656 340.601562 Z M 676.679688 262.324219 L 644.4375 280.941406 L 644.4375 247.328125 L 676.679688 228.710938 Z M 676.679688 226.171875 L 644.4375 244.785156 L 644.4375 211.171875 L 676.679688 192.554688 Z M 676.679688 190.015625 L 644.4375 208.628906 L 644.4375 175.019531 L 676.679688 156.402344 Z M 403.316406 192.554688 L 435.5625 211.171875 L 435.5625 244.785156 L 403.316406 226.171875 Z M 403.316406 228.710938 L 435.5625 247.328125 L 435.5625 280.941406 L 403.316406 262.324219 Z M 643.335938 173.113281 L 611.089844 154.496094 L 643.335938 135.878906 L 675.582031 154.496094 Z M 608.886719 153.226562 L 576.644531 134.609375 L 608.886719 115.992188 L 641.136719 134.609375 Z M 574.441406 133.339844 L 542.199219 114.722656 L 574.441406 96.105469 L 606.6875 114.722656 Z M 507.753906 94.835938 L 539.996094 76.21875 L 572.242188 94.835938 L 539.996094 113.453125 Z M 537.796875 114.722656 L 505.554688 133.339844 L 473.308594 114.722656 L 505.554688 96.105469 Z M 471.109375 153.226562 L 438.863281 134.609375 L 471.109375 115.992188 L 503.351562 134.609375 Z M 468.90625 154.496094 L 436.664062 173.113281 L 404.417969 154.496094 L 436.664062 135.878906 Z M 403.316406 156.402344 L 435.5625 175.019531 L 435.5625 208.628906 L 403.316406 190.015625 Z M 401.117188 224.898438 L 368.871094 206.285156 L 368.871094 172.671875 L 401.117188 191.285156 Z M 401.117188 261.054688 L 368.871094 242.4375 L 368.871094 208.824219 L 401.117188 227.441406 Z M 403.316406 264.867188 L 435.5625 283.484375 L 435.5625 317.09375 L 403.316406 298.480469 Z M 437.761719 284.753906 L 470.007812 303.371094 L 470.007812 336.984375 L 437.761719 318.367188 Z M 472.207031 304.640625 L 504.453125 323.257812 L 504.453125 356.871094 L 472.207031 338.253906 Z M 506.652344 324.527344 L 538.898438 343.144531 L 538.898438 376.757812 L 506.652344 358.140625 Z M 541.097656 343.144531 L 573.34375 324.527344 L 573.34375 358.140625 L 541.097656 376.757812 Z M 575.542969 323.257812 L 607.789062 304.640625 L 607.789062 338.253906 L 575.542969 356.871094 Z M 609.988281 303.371094 L 642.234375 284.753906 L 642.234375 318.367188 L 609.988281 336.984375 Z M 644.4375 283.484375 L 676.679688 264.867188 L 676.679688 298.480469 L 644.4375 317.09375 Z M 711.125 242.4375 L 678.882812 261.054688 L 678.882812 227.441406 L 711.125 208.824219 Z M 711.125 206.285156 L 678.882812 224.898438 L 678.882812 191.285156 L 711.125 172.671875 Z M 711.125 170.128906 L 678.882812 188.746094 L 678.882812 155.132812 L 711.125 136.515625 Z M 401.117188 188.746094 L 368.871094 170.128906 L 368.871094 136.515625 L 401.117188 155.132812 Z M 677.78125 153.226562 L 645.535156 134.609375 L 677.78125 115.992188 L 710.023438 134.609375 Z M 643.335938 133.339844 L 611.089844 114.722656 L 643.335938 96.105469 L 675.582031 114.722656 Z M 608.886719 113.453125 L 576.644531 94.835938 L 608.886719 76.21875 L 641.136719 94.835938 Z M 574.441406 93.566406 L 542.199219 74.949219 L 574.441406 56.332031 L 606.6875 74.949219 Z M 539.996094 36.445312 L 572.242188 55.0625 L 539.996094 73.679688 L 507.753906 55.0625 Z M 505.554688 56.332031 L 537.796875 74.949219 L 505.554688 93.566406 L 473.308594 74.949219 Z M 471.109375 76.21875 L 503.351562 94.835938 L 471.109375 113.453125 L 438.863281 94.835938 Z M 436.664062 96.105469 L 468.90625 114.722656 L 436.664062 133.339844 L 404.417969 114.722656 Z M 402.214844 115.992188 L 434.460938 134.609375 L 402.214844 153.226562 L 369.972656 134.609375 Z M 368.871094 281.136719 L 401.117188 299.75 L 401.117188 333.367188 L 368.871094 314.746094 Z M 403.316406 301.019531 L 435.5625 319.636719 L 435.5625 353.25 L 403.316406 334.636719 Z M 437.761719 320.90625 L 470.007812 339.527344 L 470.007812 373.140625 L 437.761719 354.519531 Z M 472.207031 340.796875 L 504.453125 359.414062 L 504.453125 393.023438 L 472.207031 374.410156 Z M 506.652344 360.683594 L 538.898438 379.300781 L 538.898438 412.914062 L 506.652344 394.296875 Z M 541.097656 379.300781 L 573.34375 360.683594 L 573.34375 394.296875 L 541.097656 412.914062 Z M 575.542969 359.414062 L 607.789062 340.796875 L 607.789062 374.410156 L 575.542969 393.023438 Z M 609.988281 339.527344 L 642.234375 320.90625 L 642.234375 354.519531 L 609.988281 373.140625 Z M 644.4375 319.636719 L 676.679688 301.019531 L 676.679688 334.636719 L 644.4375 353.25 Z M 711.125 314.746094 L 678.882812 333.367188 L 678.882812 299.75 L 711.125 281.136719 Z M 711.125 314.746094 " fill-opacity="1" fill-rule="nonzero"/></g><g clip-path="url(#4e7c7af066)"><path fill="#000000" d="M 271.550781 320.460938 C 271.277344 320.464844 271.042969 320.566406 270.851562 320.761719 C 270.664062 320.960938 270.570312 321.195312 270.574219 321.46875 L 270.574219 358.699219 L 241.371094 373.363281 C 241.25 373.421875 241.148438 373.5 241.0625 373.601562 C 240.976562 373.699219 240.914062 373.8125 240.871094 373.9375 C 240.828125 374.0625 240.8125 374.191406 240.820312 374.324219 C 240.832031 374.457031 240.867188 374.582031 240.925781 374.699219 C 240.984375 374.816406 241.0625 374.917969 241.160156 375.007812 C 241.261719 375.09375 241.375 375.15625 241.5 375.199219 C 241.625 375.242188 241.75 375.257812 241.882812 375.246094 C 242.015625 375.238281 242.140625 375.203125 242.257812 375.144531 L 271.566406 360.425781 L 300.875 375.144531 C 300.992188 375.203125 301.117188 375.238281 301.246094 375.246094 C 301.378906 375.257812 301.507812 375.238281 301.628906 375.199219 C 301.753906 375.15625 301.867188 375.09375 301.96875 375.003906 C 302.066406 374.917969 302.144531 374.816406 302.203125 374.699219 C 302.261719 374.582031 302.296875 374.457031 302.304688 374.324219 C 302.316406 374.191406 302.300781 374.0625 302.257812 373.9375 C 302.214844 373.8125 302.152344 373.699219 302.066406 373.601562 C 301.980469 373.5 301.878906 373.421875 301.761719 373.363281 L 272.558594 358.699219 L 272.558594 321.46875 C 272.558594 321.335938 272.535156 321.207031 272.484375 321.082031 C 272.433594 320.957031 272.359375 320.847656 272.265625 320.75 C 272.171875 320.65625 272.0625 320.582031 271.9375 320.535156 C 271.8125 320.484375 271.683594 320.457031 271.550781 320.460938 Z M 276.523438 320.472656 L 279.5 326.28125 L 279.5 329.4375 L 281.480469 329.4375 L 281.480469 326.28125 L 284.457031 320.472656 L 282.269531 320.472656 L 280.546875 324.164062 L 280.4375 324.164062 L 278.710938 320.472656 Z M 251.730469 348.359375 C 251.597656 348.359375 251.472656 348.386719 251.351562 348.433594 C 251.230469 348.484375 251.121094 348.558594 251.027344 348.652344 C 250.9375 348.746094 250.863281 348.851562 250.8125 348.972656 C 250.761719 349.097656 250.738281 349.222656 250.738281 349.355469 C 250.738281 349.488281 250.761719 349.613281 250.8125 349.738281 C 250.863281 349.859375 250.9375 349.964844 251.027344 350.058594 C 251.121094 350.152344 251.230469 350.226562 251.351562 350.277344 C 251.472656 350.324219 251.597656 350.351562 251.730469 350.351562 C 251.863281 350.351562 251.988281 350.324219 252.109375 350.277344 C 252.230469 350.226562 252.339844 350.152344 252.429688 350.058594 C 252.523438 349.964844 252.597656 349.859375 252.644531 349.738281 C 252.695312 349.613281 252.722656 349.488281 252.722656 349.355469 C 252.722656 349.222656 252.695312 349.097656 252.644531 348.972656 C 252.597656 348.851562 252.523438 348.746094 252.429688 348.652344 C 252.339844 348.558594 252.230469 348.484375 252.109375 348.433594 C 251.988281 348.386719 251.863281 348.359375 251.730469 348.359375 Z M 291.398438 348.359375 C 291.269531 348.359375 291.140625 348.386719 291.019531 348.433594 C 290.898438 348.484375 290.792969 348.558594 290.699219 348.652344 C 290.605469 348.746094 290.535156 348.851562 290.484375 348.972656 C 290.433594 349.097656 290.40625 349.222656 290.40625 349.355469 C 290.40625 349.488281 290.433594 349.613281 290.484375 349.738281 C 290.535156 349.859375 290.605469 349.964844 290.699219 350.058594 C 290.792969 350.152344 290.898438 350.226562 291.019531 350.277344 C 291.140625 350.324219 291.269531 350.351562 291.398438 350.351562 C 291.53125 350.351562 291.65625 350.324219 291.777344 350.277344 C 291.902344 350.226562 292.007812 350.152344 292.101562 350.058594 C 292.195312 349.964844 292.265625 349.859375 292.316406 349.738281 C 292.367188 349.613281 292.390625 349.488281 292.390625 349.355469 C 292.390625 349.222656 292.367188 349.097656 292.316406 348.972656 C 292.265625 348.851562 292.195312 348.746094 292.101562 348.652344 C 292.007812 348.558594 291.902344 348.484375 291.777344 348.433594 C 291.65625 348.386719 291.53125 348.359375 291.398438 348.359375 Z M 255.695312 350.351562 C 255.566406 350.351562 255.4375 350.375 255.316406 350.425781 C 255.195312 350.476562 255.089844 350.550781 254.996094 350.644531 C 254.902344 350.738281 254.832031 350.84375 254.78125 350.964844 C 254.730469 351.089844 254.707031 351.214844 254.707031 351.347656 C 254.707031 351.480469 254.730469 351.605469 254.78125 351.726562 C 254.832031 351.851562 254.902344 351.957031 254.996094 352.050781 C 255.089844 352.144531 255.195312 352.21875 255.316406 352.265625 C 255.4375 352.316406 255.566406 352.34375 255.695312 352.34375 C 255.828125 352.34375 255.957031 352.316406 256.078125 352.265625 C 256.199219 352.21875 256.304688 352.144531 256.398438 352.050781 C 256.492188 351.957031 256.5625 351.851562 256.613281 351.726562 C 256.664062 351.605469 256.6875 351.480469 256.6875 351.347656 C 256.6875 351.214844 256.664062 351.089844 256.613281 350.964844 C 256.5625 350.84375 256.492188 350.738281 256.398438 350.644531 C 256.304688 350.550781 256.199219 350.476562 256.078125 350.425781 C 255.957031 350.375 255.828125 350.351562 255.695312 350.351562 Z M 287.433594 350.351562 C 287.300781 350.351562 287.175781 350.375 287.054688 350.425781 C 286.933594 350.476562 286.824219 350.550781 286.730469 350.644531 C 286.636719 350.738281 286.566406 350.84375 286.515625 350.964844 C 286.464844 351.089844 286.441406 351.214844 286.441406 351.347656 C 286.441406 351.480469 286.464844 351.605469 286.515625 351.726562 C 286.566406 351.851562 286.636719 351.957031 286.730469 352.050781 C 286.824219 352.144531 286.933594 352.21875 287.054688 352.265625 C 287.175781 352.316406 287.300781 352.34375 287.433594 352.34375 C 287.5625 352.34375 287.691406 352.316406 287.8125 352.265625 C 287.933594 352.21875 288.039062 352.144531 288.132812 352.050781 C 288.226562 351.957031 288.296875 351.851562 288.347656 351.726562 C 288.398438 351.605469 288.425781 351.480469 288.425781 351.347656 C 288.425781 351.214844 288.398438 351.089844 288.347656 350.964844 C 288.296875 350.84375 288.226562 350.738281 288.132812 350.644531 C 288.039062 350.550781 287.933594 350.476562 287.8125 350.425781 C 287.691406 350.375 287.5625 350.351562 287.433594 350.351562 Z M 259.664062 352.34375 C 259.53125 352.34375 259.40625 352.367188 259.285156 352.417969 C 259.164062 352.46875 259.054688 352.542969 258.960938 352.636719 C 258.871094 352.726562 258.796875 352.835938 258.746094 352.957031 C 258.699219 353.078125 258.671875 353.207031 258.671875 353.339844 C 258.671875 353.472656 258.699219 353.597656 258.746094 353.71875 C 258.796875 353.84375 258.871094 353.949219 258.960938 354.042969 C 259.054688 354.136719 259.164062 354.207031 259.285156 354.257812 C 259.40625 354.308594 259.53125 354.335938 259.664062 354.335938 C 259.796875 354.335938 259.921875 354.308594 260.042969 354.257812 C 260.164062 354.207031 260.273438 354.136719 260.367188 354.042969 C 260.457031 353.949219 260.53125 353.84375 260.582031 353.71875 C 260.628906 353.597656 260.65625 353.472656 260.65625 353.339844 C 260.65625 353.207031 260.628906 353.078125 260.582031 352.957031 C 260.53125 352.835938 260.457031 352.726562 260.367188 352.636719 C 260.273438 352.542969 260.164062 352.46875 260.042969 352.417969 C 259.921875 352.367188 259.796875 352.34375 259.664062 352.34375 Z M 283.464844 352.34375 C 283.335938 352.34375 283.207031 352.367188 283.085938 352.417969 C 282.964844 352.46875 282.859375 352.542969 282.765625 352.636719 C 282.671875 352.726562 282.601562 352.835938 282.550781 352.957031 C 282.5 353.078125 282.472656 353.207031 282.472656 353.339844 C 282.472656 353.472656 282.5 353.597656 282.550781 353.71875 C 282.601562 353.84375 282.671875 353.949219 282.765625 354.042969 C 282.859375 354.136719 282.964844 354.207031 283.085938 354.257812 C 283.207031 354.308594 283.335938 354.335938 283.464844 354.335938 C 283.597656 354.335938 283.722656 354.308594 283.84375 354.257812 C 283.96875 354.207031 284.074219 354.136719 284.167969 354.042969 C 284.261719 353.949219 284.332031 353.84375 284.382812 353.71875 C 284.433594 353.597656 284.457031 353.472656 284.457031 353.339844 C 284.457031 353.207031 284.433594 353.078125 284.382812 352.957031 C 284.332031 352.835938 284.261719 352.726562 284.167969 352.636719 C 284.074219 352.542969 283.96875 352.46875 283.84375 352.417969 C 283.722656 352.367188 283.597656 352.34375 283.464844 352.34375 Z M 263.632812 354.335938 C 263.5 354.335938 263.371094 354.359375 263.25 354.410156 C 263.128906 354.460938 263.023438 354.535156 262.929688 354.625 C 262.835938 354.71875 262.765625 354.828125 262.714844 354.949219 C 262.664062 355.070312 262.640625 355.199219 262.640625 355.332031 C 262.640625 355.464844 262.664062 355.589844 262.714844 355.710938 C 262.765625 355.835938 262.835938 355.941406 262.929688 356.035156 C 263.023438 356.128906 263.128906 356.199219 263.25 356.25 C 263.371094 356.300781 263.5 356.328125 263.632812 356.328125 C 263.761719 356.328125 263.890625 356.300781 264.011719 356.25 C 264.132812 356.199219 264.238281 356.128906 264.332031 356.035156 C 264.425781 355.941406 264.496094 355.835938 264.546875 355.710938 C 264.597656 355.589844 264.621094 355.464844 264.621094 355.332031 C 264.621094 355.199219 264.597656 355.070312 264.546875 354.949219 C 264.496094 354.828125 264.425781 354.71875 264.332031 354.625 C 264.238281 354.535156 264.132812 354.460938 264.011719 354.410156 C 263.890625 354.359375 263.761719 354.335938 263.632812 354.335938 Z M 279.5 354.335938 C 279.367188 354.335938 279.242188 354.359375 279.121094 354.410156 C 278.996094 354.460938 278.890625 354.535156 278.796875 354.625 C 278.703125 354.71875 278.632812 354.828125 278.582031 354.949219 C 278.53125 355.070312 278.507812 355.199219 278.507812 355.332031 C 278.507812 355.464844 278.53125 355.589844 278.582031 355.710938 C 278.632812 355.835938 278.703125 355.941406 278.796875 356.035156 C 278.890625 356.128906 278.996094 356.199219 279.121094 356.25 C 279.242188 356.300781 279.367188 356.328125 279.5 356.328125 C 279.628906 356.328125 279.757812 356.300781 279.878906 356.25 C 280 356.199219 280.105469 356.128906 280.199219 356.035156 C 280.292969 355.941406 280.363281 355.835938 280.414062 355.710938 C 280.464844 355.589844 280.492188 355.464844 280.492188 355.332031 C 280.492188 355.199219 280.464844 355.070312 280.414062 354.949219 C 280.363281 354.828125 280.292969 354.71875 280.199219 354.625 C 280.105469 354.535156 280 354.460938 279.878906 354.410156 C 279.757812 354.359375 279.628906 354.335938 279.5 354.335938 Z M 267.597656 356.328125 C 267.464844 356.328125 267.339844 356.351562 267.21875 356.402344 C 267.097656 356.453125 266.988281 356.523438 266.898438 356.617188 C 266.804688 356.710938 266.730469 356.820312 266.683594 356.941406 C 266.632812 357.0625 266.605469 357.191406 266.605469 357.324219 C 266.605469 357.453125 266.632812 357.582031 266.683594 357.703125 C 266.730469 357.824219 266.804688 357.933594 266.898438 358.027344 C 266.988281 358.121094 267.097656 358.191406 267.21875 358.242188 C 267.339844 358.292969 267.464844 358.320312 267.597656 358.320312 C 267.730469 358.320312 267.855469 358.292969 267.976562 358.242188 C 268.097656 358.191406 268.207031 358.121094 268.300781 358.027344 C 268.390625 357.933594 268.464844 357.824219 268.515625 357.703125 C 268.566406 357.582031 268.589844 357.453125 268.589844 357.324219 C 268.589844 357.191406 268.566406 357.0625 268.515625 356.941406 C 268.464844 356.820312 268.390625 356.710938 268.300781 356.617188 C 268.207031 356.523438 268.097656 356.453125 267.976562 356.402344 C 267.855469 356.351562 267.730469 356.328125 267.597656 356.328125 Z M 275.53125 356.328125 C 275.398438 356.328125 275.273438 356.351562 275.152344 356.402344 C 275.03125 356.453125 274.921875 356.523438 274.832031 356.617188 C 274.738281 356.710938 274.664062 356.820312 274.617188 356.941406 C 274.566406 357.0625 274.539062 357.191406 274.539062 357.324219 C 274.539062 357.453125 274.566406 357.582031 274.617188 357.703125 C 274.664062 357.824219 274.738281 357.933594 274.832031 358.027344 C 274.921875 358.121094 275.03125 358.191406 275.152344 358.242188 C 275.273438 358.292969 275.398438 358.320312 275.53125 358.320312 C 275.664062 358.320312 275.789062 358.292969 275.910156 358.242188 C 276.03125 358.191406 276.140625 358.121094 276.234375 358.027344 C 276.324219 357.933594 276.398438 357.824219 276.449219 357.703125 C 276.5 357.582031 276.523438 357.453125 276.523438 357.324219 C 276.523438 357.191406 276.5 357.0625 276.449219 356.941406 C 276.398438 356.820312 276.324219 356.710938 276.234375 356.617188 C 276.140625 356.523438 276.03125 356.453125 275.910156 356.402344 C 275.789062 356.351562 275.664062 356.328125 275.53125 356.328125 Z M 240.820312 357.324219 L 240.820312 359.316406 L 244.878906 359.316406 L 240.820312 364.878906 L 240.820312 366.285156 L 247.761719 366.285156 L 247.761719 364.292969 L 243.703125 364.292969 L 247.761719 358.726562 L 247.761719 357.324219 Z M 294.386719 357.324219 L 296.996094 361.769531 L 294.375 366.285156 L 296.535156 366.285156 L 298.285156 363.214844 L 298.398438 363.214844 L 300.140625 366.285156 L 302.28125 366.285156 L 299.59375 361.789062 L 302.308594 357.324219 L 300.179688 357.324219 L 298.445312 360.457031 L 298.34375 360.457031 L 296.585938 357.324219 Z M 271.566406 363.296875 C 271.433594 363.296875 271.308594 363.324219 271.183594 363.375 C 271.0625 363.425781 270.957031 363.496094 270.863281 363.589844 C 270.769531 363.683594 270.699219 363.789062 270.648438 363.914062 C 270.597656 364.035156 270.574219 364.160156 270.574219 364.292969 C 270.574219 364.425781 270.597656 364.554688 270.648438 364.675781 C 270.699219 364.796875 270.769531 364.90625 270.863281 365 C 270.957031 365.089844 271.0625 365.164062 271.183594 365.214844 C 271.308594 365.265625 271.433594 365.289062 271.566406 365.289062 C 271.695312 365.289062 271.824219 365.265625 271.945312 365.214844 C 272.066406 365.164062 272.171875 365.089844 272.265625 365 C 272.359375 364.90625 272.429688 364.796875 272.480469 364.675781 C 272.53125 364.554688 272.558594 364.425781 272.558594 364.292969 C 272.558594 364.160156 272.53125 364.035156 272.480469 363.914062 C 272.429688 363.789062 272.359375 363.683594 272.265625 363.589844 C 272.171875 363.496094 272.066406 363.425781 271.945312 363.375 C 271.824219 363.324219 271.695312 363.296875 271.566406 363.296875 Z M 271.566406 367.28125 C 271.433594 367.28125 271.308594 367.308594 271.183594 367.359375 C 271.0625 367.40625 270.957031 367.480469 270.863281 367.574219 C 270.769531 367.667969 270.699219 367.773438 270.648438 367.898438 C 270.597656 368.019531 270.574219 368.144531 270.574219 368.277344 C 270.574219 368.410156 270.597656 368.535156 270.648438 368.660156 C 270.699219 368.78125 270.769531 368.886719 270.863281 368.980469 C 270.957031 369.074219 271.0625 369.148438 271.183594 369.199219 C 271.308594 369.25 271.433594 369.273438 271.566406 369.273438 C 271.695312 369.273438 271.824219 369.25 271.945312 369.199219 C 272.066406 369.148438 272.171875 369.074219 272.265625 368.980469 C 272.359375 368.886719 272.429688 368.78125 272.480469 368.660156 C 272.53125 368.535156 272.558594 368.410156 272.558594 368.277344 C 272.558594 368.144531 272.53125 368.019531 272.480469 367.898438 C 272.429688 367.773438 272.359375 367.667969 272.265625 367.574219 C 272.171875 367.480469 272.066406 367.40625 271.945312 367.359375 C 271.824219 367.308594 271.695312 367.28125 271.566406 367.28125 Z M 271.566406 371.265625 C 271.433594 371.265625 271.308594 371.289062 271.183594 371.339844 C 271.0625 371.390625 270.957031 371.464844 270.863281 371.558594 C 270.769531 371.652344 270.699219 371.757812 270.648438 371.878906 C 270.597656 372.003906 270.574219 372.128906 270.574219 372.261719 C 270.574219 372.394531 270.597656 372.519531 270.648438 372.640625 C 270.699219 372.765625 270.769531 372.871094 270.863281 372.964844 C 270.957031 373.058594 271.0625 373.128906 271.183594 373.179688 C 271.308594 373.230469 271.433594 373.257812 271.566406 373.257812 C 271.695312 373.257812 271.824219 373.230469 271.945312 373.179688 C 272.066406 373.128906 272.171875 373.058594 272.265625 372.964844 C 272.359375 372.871094 272.429688 372.765625 272.480469 372.640625 C 272.53125 372.519531 272.558594 372.394531 272.558594 372.261719 C 272.558594 372.128906 272.53125 372.003906 272.480469 371.878906 C 272.429688 371.757812 272.359375 371.652344 272.265625 371.558594 C 272.171875 371.464844 272.066406 371.390625 271.945312 371.339844 C 271.824219 371.289062 271.695312 371.265625 271.566406 371.265625 Z M 271.566406 375.25 C 271.433594 375.25 271.308594 375.273438 271.183594 375.324219 C 271.0625 375.375 270.957031 375.445312 270.863281 375.539062 C 270.769531 375.632812 270.699219 375.742188 270.648438 375.863281 C 270.597656 375.984375 270.574219 376.113281 270.574219 376.246094 C 270.574219 376.375 270.597656 376.503906 270.648438 376.625 C 270.699219 376.746094 270.769531 376.855469 270.863281 376.949219 C 270.957031 377.042969 271.0625 377.113281 271.183594 377.164062 C 271.308594 377.214844 271.433594 377.242188 271.566406 377.242188 C 271.695312 377.242188 271.824219 377.214844 271.945312 377.164062 C 272.066406 377.113281 272.171875 377.042969 272.265625 376.949219 C 272.359375 376.855469 272.429688 376.746094 272.480469 376.625 C 272.53125 376.503906 272.558594 376.375 272.558594 376.246094 C 272.558594 376.113281 272.53125 375.984375 272.480469 375.863281 C 272.429688 375.742188 272.359375 375.632812 272.265625 375.539062 C 272.171875 375.445312 272.066406 375.375 271.945312 375.324219 C 271.824219 375.273438 271.695312 375.25 271.566406 375.25 Z M 271.566406 379.234375 C 271.433594 379.234375 271.308594 379.257812 271.183594 379.308594 C 271.0625 379.359375 270.957031 379.429688 270.863281 379.523438 C 270.769531 379.617188 270.699219 379.726562 270.648438 379.847656 C 270.597656 379.96875 270.574219 380.097656 270.574219 380.226562 C 270.574219 380.359375 270.597656 380.488281 270.648438 380.609375 C 270.699219 380.730469 270.769531 380.839844 270.863281 380.933594 C 270.957031 381.027344 271.0625 381.097656 271.183594 381.148438 C 271.308594 381.199219 271.433594 381.222656 271.566406 381.222656 C 271.695312 381.222656 271.824219 381.199219 271.945312 381.148438 C 272.066406 381.097656 272.171875 381.027344 272.265625 380.933594 C 272.359375 380.839844 272.429688 380.730469 272.480469 380.609375 C 272.53125 380.488281 272.558594 380.359375 272.558594 380.226562 C 272.558594 380.097656 272.53125 379.96875 272.480469 379.847656 C 272.429688 379.726562 272.359375 379.617188 272.265625 379.523438 C 272.171875 379.429688 272.066406 379.359375 271.945312 379.308594 C 271.824219 379.257812 271.695312 379.234375 271.566406 379.234375 Z M 271.566406 379.234375 " fill-opacity="1" fill-rule="nonzero"/></g></svg>