<svg xmlns="http://www.w3.org/2000/svg" xmlns:xlink="http://www.w3.org/1999/xlink" width="1024" zoomAndPan="magnify" viewBox="0 0 768 767.999994" height="1024" preserveAspectRatio="xMidYMid meet" version="1.0"><defs><clipPath id="f0421f0979"><path d="M 380.949219 165.394531 L 600.699219 165.394531 L 600.699219 602.644531 L 380.949219 602.644531 Z M 380.949219 165.394531 " clip-rule="nonzero"/></clipPath><clipPath id="e6cbf12870"><path d="M 0 165.351562 L 381.695312 165.351562 L 381.695312 274.675781 L 0 274.675781 Z M 0 165.351562 " clip-rule="nonzero"/></clipPath><clipPath id="f5a968801b"><path d="M 0 0.351562 L 381.695312 0.351562 L 381.695312 109.675781 L 0 109.675781 Z M 0 0.351562 " clip-rule="nonzero"/></clipPath><clipPath id="a1d735d5db"><rect x="0" width="382" y="0" height="110"/></clipPath><clipPath id="e49d6acad2"><path d="M 0 493.324219 L 381.695312 493.324219 L 381.695312 602.648438 L 0 602.648438 Z M 0 493.324219 " clip-rule="nonzero"/></clipPath><clipPath id="a7cba06f0a"><path d="M 0 0.324219 L 381.695312 0.324219 L 381.695312 109.648438 L 0 109.648438 Z M 0 0.324219 " clip-rule="nonzero"/></clipPath><clipPath id="81b4285ff0"><rect x="0" width="382" y="0" height="110"/></clipPath><clipPath id="4589c7f84b"><path d="M 199.429688 264.019531 L 289.03125 264.019531 L 289.03125 503.980469 L 199.429688 503.980469 Z M 199.429688 264.019531 " clip-rule="nonzero"/></clipPath><clipPath id="658bcd8b5c"><path d="M 0.429688 0.0195312 L 90.03125 0.0195312 L 90.03125 239.980469 L 0.429688 239.980469 Z M 0.429688 0.0195312 " clip-rule="nonzero"/></clipPath><clipPath id="bb740279fe"><rect x="0" width="91" y="0" height="240"/></clipPath><clipPath id="a1d3799a14"><path d="M 368.8125 274.320312 L 478.3125 274.320312 L 478.3125 493.320312 L 368.8125 493.320312 Z M 368.8125 274.320312 " clip-rule="nonzero"/></clipPath></defs><rect x="-76.8" width="921.6" fill="#ffffff" y="-76.799999" height="921.599993" fill-opacity="1"/><rect x="-76.8" width="921.6" fill="#ffffff" y="-76.799999" height="921.599993" fill-opacity="1"/><path fill="#000000" d="M 384 0 C 171.839844 0 0 171.839844 0 384 C 0 596.160156 171.839844 768 384 768 C 596.160156 768 768 596.160156 768 384 C 768 171.839844 596.160156 0 384 0 Z M 384 0 " fill-opacity="1" fill-rule="nonzero"/><g clip-path="url(#f0421f0979)"><path fill="#ffffff" d="M 380.949219 165.507812 L 381.980469 165.507812 C 411.476562 165.507812 440.089844 171.285156 467.023438 182.679688 C 493.042969 193.683594 516.40625 209.4375 536.472656 229.5 C 556.535156 249.566406 572.289062 272.929688 583.292969 298.949219 C 594.6875 325.882812 600.464844 354.496094 600.464844 383.992188 C 600.464844 413.488281 594.6875 442.101562 583.292969 469.035156 C 572.289062 495.054688 556.535156 518.417969 536.472656 538.484375 C 516.40625 558.550781 493.042969 574.300781 467.023438 585.308594 C 440.089844 596.699219 411.476562 602.476562 381.980469 602.476562 L 380.949219 602.476562 Z M 380.949219 165.507812 " fill-opacity="1" fill-rule="nonzero"/></g><g clip-path="url(#e6cbf12870)"><g transform="matrix(1, 0, 0, 1, 0, 165)"><g clip-path="url(#a1d735d5db)"><g clip-path="url(#f5a968801b)"><path fill="#ffffff" d="M -3.859375 0.351562 L 381.765625 0.351562 L 381.765625 109.675781 L -3.859375 109.675781 Z M -3.859375 0.351562 " fill-opacity="1" fill-rule="nonzero"/></g></g></g></g><g clip-path="url(#e49d6acad2)"><g transform="matrix(1, 0, 0, 1, 0, 493)"><g clip-path="url(#81b4285ff0)"><g clip-path="url(#a7cba06f0a)"><path fill="#ffffff" d="M 0 0.324219 L 381.78125 0.324219 L 381.78125 109.648438 L 0 109.648438 Z M 0 0.324219 " fill-opacity="1" fill-rule="nonzero"/></g></g></g></g><g clip-path="url(#4589c7f84b)"><g transform="matrix(1, 0, 0, 1, 199, 264)"><g clip-path="url(#bb740279fe)"><g clip-path="url(#658bcd8b5c)"><path fill="#ffffff" d="M 0.429688 0.0195312 L 90.03125 0.0195312 L 90.03125 240.128906 L 0.429688 240.128906 Z M 0.429688 0.0195312 " fill-opacity="1" fill-rule="nonzero"/></g></g></g></g><g clip-path="url(#a1d3799a14)"><path fill="#000000" d="M 368.8125 274.40625 L 369.328125 274.40625 C 384.039062 274.40625 398.3125 277.296875 411.75 283.003906 C 424.726562 288.515625 436.378906 296.402344 446.390625 306.453125 C 456.398438 316.5 464.253906 328.199219 469.742188 341.230469 C 475.425781 354.71875 478.308594 369.046875 478.308594 383.816406 C 478.308594 398.585938 475.425781 412.917969 469.742188 426.40625 C 464.253906 439.433594 456.398438 451.136719 446.390625 461.183594 C 436.378906 471.230469 424.726562 479.121094 411.75 484.632812 C 398.3125 490.335938 384.039062 493.230469 369.328125 493.230469 L 368.8125 493.230469 Z M 368.8125 274.40625 " fill-opacity="1" fill-rule="nonzero"/></g></svg>