<svg xmlns="http://www.w3.org/2000/svg" xmlns:xlink="http://www.w3.org/1999/xlink" width="1440" zoomAndPan="magnify" viewBox="0 0 1080 449.999984" height="600" preserveAspectRatio="xMidYMid meet" version="1.0"><defs><clipPath id="8bd9a84f18"><path d="M 919.953125 8.808594 L 1062.898438 8.808594 L 1062.898438 192.175781 L 919.953125 192.175781 Z M 919.953125 8.808594 " clip-rule="nonzero"/></clipPath><clipPath id="5f76e4e30c"><path d="M 332.503906 18.023438 L 553.335938 18.023438 L 553.335938 191.53125 L 332.503906 191.53125 Z M 332.503906 18.023438 " clip-rule="nonzero"/></clipPath><clipPath id="d21b1faef3"><path d="M 710 1.007812 L 734 1.007812 L 734 87 L 710 87 Z M 710 1.007812 " clip-rule="nonzero"/></clipPath><clipPath id="f38f8fee07"><path d="M 47 20 L 277 20 L 277 209 L 47 209 Z M 47 20 " clip-rule="nonzero"/></clipPath><clipPath id="f1307a9fc8"><path d="M 5.683594 13.082031 L 281.542969 23.082031 L 274.46875 218.152344 L -1.386719 208.152344 Z M 5.683594 13.082031 " clip-rule="nonzero"/></clipPath><clipPath id="a28e128abe"><path d="M 5.683594 13.082031 L 281.542969 23.082031 L 274.46875 218.152344 L -1.386719 208.152344 Z M 5.683594 13.082031 " clip-rule="nonzero"/></clipPath><clipPath id="843fb3cd66"><path d="M 3 89 L 121 89 L 121 210 L 3 210 Z M 3 89 " clip-rule="nonzero"/></clipPath><clipPath id="f90a9fc6b4"><path d="M 5.683594 13.082031 L 281.542969 23.082031 L 274.46875 218.152344 L -1.386719 208.152344 Z M 5.683594 13.082031 " clip-rule="nonzero"/></clipPath><clipPath id="477e756527"><path d="M 5.683594 13.082031 L 281.542969 23.082031 L 274.46875 218.152344 L -1.386719 208.152344 Z M 5.683594 13.082031 " clip-rule="nonzero"/></clipPath><clipPath id="45ee45bf16"><rect x="0" width="1065" y="0" height="218"/></clipPath></defs><g transform="matrix(1, 0, 0, 1, 9, 122)"><g clip-path="url(#45ee45bf16)"><g clip-path="url(#8bd9a84f18)"><path fill="#000000" d="M 954.722656 192.175781 L 943.265625 192.175781 L 943.265625 100.675781 L 927.6875 107.792969 L 919.988281 90.8125 L 943.265625 80.175781 L 943.265625 73.796875 L 927.6875 80.910156 L 919.988281 63.894531 L 943.265625 53.257812 L 943.265625 8.808594 L 965.886719 8.808594 L 965.886719 42.914062 L 1031.925781 12.695312 L 1039.585938 29.714844 L 965.886719 63.417969 L 965.886719 69.796875 L 1031.925781 39.578125 L 1039.621094 56.558594 L 965.921875 90.296875 L 965.921875 168.707031 C 1008.464844 163.09375 1040.277344 126.605469 1040.242188 83.476562 L 1040.242188 82.265625 L 1062.863281 82.265625 L 1062.863281 83.476562 C 1062.789062 143.4375 1014.339844 192.175781 954.722656 192.175781 Z M 945.710938 189.757812 L 954.722656 189.757812 C 1012.585938 189.757812 1059.726562 142.742188 1060.417969 84.722656 L 1042.613281 84.722656 C 1042.03125 129.171875 1008.71875 166.25 964.792969 171.308594 L 963.441406 171.457031 L 963.441406 88.757812 L 964.136719 88.425781 L 1036.375 55.386719 L 1030.71875 42.84375 L 963.480469 73.613281 L 963.480469 61.875 L 1036.410156 28.503906 L 1030.757812 15.960938 L 963.480469 46.730469 L 963.480469 11.230469 L 945.675781 11.230469 L 945.675781 54.761719 L 923.199219 65.03125 L 928.855469 77.574219 L 945.636719 69.871094 L 945.636719 81.605469 L 923.164062 91.875 L 928.816406 104.453125 L 945.601562 96.753906 Z M 945.710938 189.757812 " fill-opacity="1" fill-rule="nonzero"/></g><g clip-path="url(#5f76e4e30c)"><path fill="#020203" d="M 546.496094 137.460938 C 541.539062 121.722656 525.816406 79.535156 514.59375 49.785156 C 514.363281 49.175781 514.136719 48.570312 513.910156 47.972656 C 507.394531 30.703125 502.558594 18.054688 502.558594 18.054688 L 493.140625 18.054688 C 493.140625 18.054688 488.183594 30.179688 481.886719 46.25 C 480.972656 48.574219 480.035156 50.984375 479.078125 53.449219 C 475.542969 62.558594 471.773438 72.453125 468.320312 81.886719 C 466.039062 82.171875 463.753906 82.742188 461.1875 83.3125 L 423.902344 91.84375 L 415.054688 93.863281 L 400.132812 97.28125 C 381.011719 101.554688 366.175781 97.5625 355.050781 91.007812 C 346.488281 85.878906 337.925781 77.613281 332.792969 69.347656 L 332.503906 69.347656 C 338.210938 78.753906 346.203125 86.734375 355.332031 92.148438 C 370.738281 101.550781 384.433594 107.25 408.6875 101.835938 C 411.019531 101.320312 413.132812 100.859375 415.054688 100.429688 L 415.054688 178.386719 C 415.054688 182.660156 414.195312 185.792969 412.769531 188.074219 C 411.628906 189.78125 410.203125 190.921875 408.488281 190.921875 L 408.488281 191.492188 L 430.457031 191.492188 L 430.457031 191.207031 C 426.75 190.921875 423.898438 185.507812 423.898438 180.949219 L 423.898438 98.46875 C 438.09375 95.285156 438.539062 95.015625 465.75 88.730469 C 460.898438 102.40625 451.199219 131.757812 449.203125 137.746094 C 447.203125 143.445312 444.636719 147.148438 442.066406 147.148438 L 442.066406 147.71875 L 453.199219 147.71875 L 453.199219 147.148438 C 451.484375 147.148438 450.628906 145.4375 450.628906 142.875 C 450.628906 141.449219 450.914062 139.738281 451.484375 137.742188 C 453.199219 132.328125 463.46875 102.121094 468.320312 88.15625 C 468.886719 88.15625 469.175781 87.871094 469.746094 87.871094 C 490.003906 83.3125 503.984375 85.308594 513.96875 93.289062 C 520.53125 98.417969 525.097656 104.402344 528.519531 113.519531 L 528.804688 113.519531 C 532.800781 124.351562 535.941406 133.46875 537.648438 138.886719 C 539.363281 144.582031 537.648438 147.148438 535.082031 147.148438 L 535.082031 147.71875 L 553.34375 147.71875 L 553.34375 147.148438 C 551.0625 147.152344 547.921875 142.019531 546.496094 137.460938 Z M 513.96875 92.148438 C 502.269531 81.890625 489.429688 78.46875 470.886719 81.316406 C 474.511719 71.757812 478.496094 61.527344 482.132812 52.285156 C 483.023438 50.007812 483.898438 47.796875 484.742188 45.667969 C 490.167969 31.945312 494.28125 21.757812 494.28125 21.757812 C 494.28125 21.757812 497.988281 31.46875 503.28125 45.421875 C 503.671875 46.445312 504.066406 47.492188 504.472656 48.5625 C 511.261719 66.46875 520.214844 90.195312 527.378906 109.53125 C 523.957031 102.40625 519.105469 96.707031 513.96875 92.148438 Z M 513.96875 92.148438 " fill-opacity="1" fill-rule="nonzero"/></g><path fill="#000000" d="M 801.90625 109.59375 C 799.277344 108.636719 796.53125 108.386719 793.746094 108.589844 C 788.25 109.011719 782.964844 110.34375 777.820312 112.304688 C 777.230469 112.527344 776.628906 112.730469 775.761719 113.054688 C 775.761719 110.40625 775.886719 108.019531 775.71875 105.652344 C 775.59375 103.953125 774.746094 102.585938 772.855469 102.144531 C 771.476562 101.8125 770.148438 101.292969 768.773438 100.960938 C 760.84375 99.042969 752.738281 98.511719 744.636719 98.289062 C 724.046875 97.710938 703.453125 97.628906 682.886719 98.984375 C 677.175781 99.359375 671.484375 100.070312 665.976562 101.777344 C 662.890625 102.738281 662.53125 103.296875 662.714844 106.566406 C 662.714844 106.691406 662.722656 106.8125 662.734375 106.9375 C 663.640625 113.511719 664.289062 120.125 665.5 126.636719 C 668.792969 144.179688 677.039062 159.132812 689.738281 171.660156 C 690.148438 172.058594 690.527344 172.480469 690.964844 172.941406 C 690.003906 173.820312 689.09375 174.554688 688.296875 175.398438 C 686.667969 177.132812 686.539062 179.09375 688.253906 180.734375 C 689.609375 182.046875 691.132812 183.113281 692.828125 183.9375 C 698.207031 186.476562 704.003906 187.546875 709.875 188.199219 C 717.863281 189.101562 725.828125 188.945312 733.773438 187.726562 C 738.15625 187.050781 742.476562 186.125 746.515625 184.214844 C 748.34375 183.347656 750.03125 182.300781 751.1875 180.550781 C 752.496094 178.542969 752.386719 176.941406 750.726562 175.253906 C 749.882812 174.402344 748.964844 173.621094 748.050781 172.78125 C 748.15625 172.628906 748.273438 172.488281 748.398438 172.355469 C 752.476562 168.839844 756.105469 164.910156 759.285156 160.566406 C 759.621094 160.460938 761.011719 160 761.324219 159.847656 C 767.578125 156.871094 773.816406 153.859375 780.078125 150.910156 C 788.070312 147.148438 795.496094 142.535156 801.75 136.230469 C 804.851562 133.105469 807.777344 129.8125 809.195312 125.527344 C 811.511719 118.539062 808.515625 112.003906 801.90625 109.59375 Z M 677.453125 101.703125 C 694.628906 99.765625 711.878906 100.152344 729.109375 100.195312 C 737.429688 100.214844 745.757812 100.558594 754.070312 101 C 759.949219 101.308594 765.804688 102.050781 771.441406 103.929688 C 771.863281 104.039062 772.214844 104.265625 772.492188 104.605469 C 770.394531 105.058594 768.308594 105.589844 766.191406 105.960938 C 749.796875 108.832031 733.230469 108.972656 716.664062 108.898438 C 708.511719 108.867188 700.339844 108.597656 692.207031 108.167969 C 683.730469 107.71875 675.296875 106.777344 666.988281 104.96875 C 666.433594 104.847656 665.886719 104.691406 665.332031 104.554688 C 669.277344 102.847656 673.34375 102.164062 677.453125 101.703125 Z M 748.78125 175.34375 C 750.886719 178.308594 750.691406 179.523438 747.511719 181.421875 C 744.335938 183.320312 740.730469 184.210938 737.132812 184.960938 C 731.21875 186.191406 725.222656 186.609375 719.113281 186.71875 C 711.617188 186.539062 704.0625 186.109375 696.8125 183.675781 C 694.621094 182.96875 692.570312 181.972656 690.660156 180.6875 C 687.5 178.472656 688.664062 176.816406 690.800781 174.730469 C 691.128906 174.40625 692.011719 174.429688 692.558594 174.582031 C 703.769531 177.71875 715.226562 178.640625 726.808594 178.140625 C 733.492188 177.84375 740.136719 177.089844 746.441406 174.601562 C 747.472656 174.191406 748.15625 174.460938 748.777344 175.34375 Z M 744.472656 172.898438 C 743.558594 173.625 742.191406 173.878906 740.988281 174.152344 C 730.691406 176.410156 720.261719 176.679688 709.796875 175.757812 C 705.472656 175.375 701.171875 174.722656 696.894531 174 C 695.796875 173.816406 694.714844 173.027344 693.8125 172.289062 C 687.070312 166.804688 682.007812 159.917969 677.589844 152.53125 C 671.992188 143.171875 668.617188 133.011719 666.730469 122.320312 C 665.863281 117.390625 665.070312 112.453125 664.261719 107.523438 C 664.222656 107.003906 664.222656 106.488281 664.261719 105.96875 C 664.558594 105.964844 664.855469 105.992188 665.148438 106.054688 C 671.714844 108.359375 678.582031 109.042969 685.433594 109.738281 C 701.574219 111.378906 717.769531 111.269531 733.960938 110.945312 C 744.707031 110.726562 755.433594 110.046875 766.015625 107.976562 C 768.339844 107.519531 770.605469 106.777344 772.902344 106.164062 C 773.246094 106.074219 773.585938 105.976562 774.085938 105.835938 C 773.941406 109.328125 773.878906 112.660156 773.648438 115.984375 C 772.515625 132.539062 766.46875 147.230469 756.570312 160.433594 C 753.074219 165.105469 749.039062 169.261719 744.46875 172.898438 Z M 805.261719 128.480469 C 802.664062 132.273438 799.449219 135.480469 795.933594 138.414062 C 789.785156 143.546875 782.765625 147.226562 775.566406 150.625 C 770.65625 152.941406 765.714844 155.21875 761.410156 158.613281 C 760.996094 158.941406 760.042969 159.773438 759.527344 160.238281 C 760.867188 158.398438 762.128906 156.503906 763.308594 154.558594 C 770.535156 142.664062 775.046875 129.878906 775.71875 115.878906 C 775.757812 114.996094 776.117188 114.644531 776.921875 114.4375 C 779.347656 113.824219 781.746094 113.101562 784.179688 112.5 C 788.8125 111.359375 793.472656 110.335938 798.296875 110.972656 C 803.121094 111.609375 806.527344 114.390625 807.453125 118.632812 C 808.238281 122.234375 807.308594 125.484375 805.261719 128.480469 Z M 805.261719 128.480469 " fill-opacity="1" fill-rule="nonzero"/><path fill="#000000" d="M 682.605469 163.785156 C 679.863281 164.242188 675.246094 164.910156 672.511719 165.414062 C 664.542969 166.878906 656.617188 168.5625 649.292969 172.1875 C 647.3125 173.183594 645.535156 174.457031 643.953125 176.003906 C 642.269531 177.644531 642.445312 179.441406 644.003906 181.25 C 645.707031 183.230469 647.9375 184.464844 650.269531 185.527344 C 656.921875 188.570312 663.992188 190.246094 671.113281 191.703125 C 680.496094 193.621094 689.992188 194.765625 699.53125 195.550781 C 711.480469 196.539062 723.433594 196.769531 735.390625 195.972656 C 749.121094 195.054688 762.769531 193.5 776.121094 189.980469 C 780.972656 188.703125 785.785156 187.242188 790.136719 184.679688 C 791.714844 183.730469 793.125 182.578125 794.371094 181.226562 C 795.878906 179.605469 795.746094 177.871094 794.382812 176.121094 C 792.902344 174.21875 790.867188 173.046875 788.769531 172.011719 C 782.921875 169.128906 776.644531 167.570312 770.320312 166.1875 C 767.101562 165.484375 760.09375 164.296875 756.855469 163.679688 C 756.496094 163.613281 757.003906 163.664062 756.605469 163.273438 C 756.824219 163.148438 757.0625 163.085938 757.316406 163.089844 C 767.230469 164.34375 780.132812 166.050781 789.351562 170.203125 C 791.410156 171.140625 793.308594 172.335938 795.042969 173.785156 C 798.332031 176.546875 798.429688 180.195312 795.507812 183.316406 C 792.894531 186.097656 789.496094 187.636719 786.039062 189.027344 C 778.371094 192.109375 770.34375 193.867188 762.230469 195.234375 C 745.550781 198.03125 728.761719 199.117188 711.863281 198.492188 C 694.570312 197.875 677.4375 196.003906 660.6875 191.472656 C 655.929688 190.179688 651.214844 188.710938 646.945312 186.167969 C 645.246094 185.175781 643.71875 183.96875 642.355469 182.554688 C 639.980469 180.023438 640.164062 176.929688 642.570312 174.378906 C 644.65625 172.160156 647.316406 170.847656 650.078125 169.722656 C 656.339844 167.167969 662.90625 165.730469 669.566406 164.707031 C 672.703125 164.222656 675.867188 163.90625 679.019531 163.542969 C 679.59375 163.476562 681.933594 163.542969 682.511719 163.542969 C 682.503906 163.695312 682.605469 163.613281 682.605469 163.785156 Z M 682.605469 163.785156 " fill-opacity="1" fill-rule="nonzero"/><g clip-path="url(#d21b1faef3)"><path fill="#000000" d="M 725.746094 86.417969 C 726.351562 85.339844 726.96875 84.261719 727.570312 83.179688 C 730.53125 77.835938 732.109375 72.171875 731.519531 66.015625 C 731.042969 61.042969 729.136719 56.566406 726.496094 52.410156 C 723.101562 47.054688 719.515625 41.820312 716.078125 36.488281 C 713.648438 32.722656 711.628906 28.738281 710.6875 24.316406 C 709.308594 17.820312 710.941406 11.972656 714.8125 6.722656 C 716.125 4.953125 717.703125 3.375 719.175781 1.722656 C 719.429688 1.480469 719.699219 1.261719 719.988281 1.0625 L 720.28125 1.296875 C 720.0625 1.636719 719.863281 1.988281 719.628906 2.3125 C 717.988281 4.570312 716.144531 6.710938 714.730469 9.109375 C 710.964844 15.5 711.066406 22.113281 714.058594 28.792969 C 716.429688 34.082031 719.882812 38.714844 723.039062 43.53125 C 725.417969 47.160156 727.828125 50.804688 729.847656 54.625 C 735.179688 64.753906 734.253906 74.632812 728.117188 84.148438 C 727.6875 84.816406 727.257812 85.484375 726.789062 86.121094 C 726.570312 86.355469 726.328125 86.558594 726.0625 86.734375 Z M 725.746094 86.417969 " fill-opacity="1" fill-rule="nonzero"/></g><path fill="#000000" d="M 798.136719 118.890625 C 797.980469 116.898438 796.980469 115.417969 795.160156 114.765625 C 793.703125 114.246094 792.066406 113.804688 790.558594 113.925781 C 786.035156 114.289062 778.867188 118.308594 775.101562 120.765625 C 773.734375 121.65625 774.875 121.226562 774.347656 121.464844 C 774.515625 121.667969 774.132812 121.371094 774.296875 121.570312 C 774.6875 121.4375 778.59375 119.785156 778.980469 119.640625 C 781.980469 118.535156 784.945312 117.292969 788 116.355469 C 788.988281 116.035156 790 115.902344 791.035156 115.964844 C 792.074219 116.027344 793.066406 116.273438 794.007812 116.707031 C 795.078125 117.210938 795.898438 117.960938 795.835938 119.171875 C 795.71875 121.316406 795.695312 123.527344 795.148438 125.582031 C 793.703125 131.023438 789.996094 134.945312 785.832031 138.480469 C 781.671875 142.019531 776.933594 144.683594 772.039062 147.085938 C 771.414062 147.394531 766.40625 149.613281 765.789062 149.949219 C 765.871094 150.132812 764.898438 150.511719 764.984375 150.699219 C 765.707031 150.449219 771.898438 148.171875 772.613281 147.902344 C 780.648438 144.890625 787.855469 140.628906 793.34375 133.894531 C 796.882812 129.542969 798.578125 124.542969 798.136719 118.890625 Z M 798.136719 118.890625 " fill-opacity="1" fill-rule="nonzero"/><path fill="#000000" d="M 701.457031 20.859375 C 700.761719 21.773438 700.050781 22.679688 699.371094 23.617188 C 696.816406 27.105469 694.941406 30.875 694.585938 35.269531 C 694.15625 40.589844 696.121094 45.125 699.398438 49.109375 C 701.703125 51.910156 704.3125 54.460938 706.777344 57.132812 C 708.726562 59.253906 710.777344 61.289062 712.605469 63.515625 C 718.902344 71.175781 719.523438 79.507812 715.296875 88.324219 C 714.738281 89.488281 714.097656 90.613281 713.457031 91.738281 C 713.246094 92.019531 713.007812 92.277344 712.734375 92.503906 L 712.429688 92.277344 C 712.601562 91.890625 712.761719 91.492188 712.949219 91.109375 C 714.734375 87.503906 716.125 83.785156 716.464844 79.71875 C 716.941406 74.113281 715.144531 69.234375 711.636719 65.007812 C 709.210938 62.085938 706.507812 59.394531 703.871094 56.65625 C 700.878906 53.554688 697.917969 50.441406 695.773438 46.652344 C 692.089844 40.15625 692.230469 33.644531 695.894531 27.253906 C 697.152344 25.066406 698.910156 23.160156 700.445312 21.140625 C 700.660156 20.921875 700.894531 20.738281 701.15625 20.582031 Z M 701.457031 20.859375 " fill-opacity="1" fill-rule="nonzero"/><path fill="#000000" d="M 725.238281 8.511719 C 724.527344 9.71875 723.757812 10.894531 723.117188 12.136719 C 720.339844 17.515625 720.449219 22.792969 724.179688 27.664062 C 726.1875 30.277344 728.546875 32.605469 730.746094 35.0625 C 732.667969 37.207031 734.714844 39.257812 736.5 41.511719 C 742.6875 49.324219 742.808594 57.609375 738.164062 66.179688 C 737.808594 66.84375 737.375 67.460938 736.972656 68.097656 L 736.585938 67.902344 C 736.6875 67.597656 736.800781 67.296875 736.929688 67.003906 C 738.460938 63.929688 739.675781 60.769531 740.082031 57.316406 C 740.722656 51.898438 739.140625 47.097656 735.796875 42.957031 C 732.972656 39.445312 729.757812 36.269531 726.738281 32.925781 C 725.648438 31.714844 724.574219 30.484375 723.601562 29.179688 C 719.210938 23.273438 719.003906 17.105469 722.960938 10.894531 C 723.546875 9.976562 724.214844 9.121094 724.859375 8.234375 Z M 725.238281 8.511719 " fill-opacity="1" fill-rule="nonzero"/><g clip-path="url(#f38f8fee07)"><g clip-path="url(#f1307a9fc8)"><g clip-path="url(#a28e128abe)"><path fill="#020203" d="M 267.195312 117.625 C 264.292969 112.765625 260.777344 108.398438 256.65625 104.523438 C 252.53125 100.644531 247.957031 97.40625 242.929688 94.804688 C 237.933594 92.148438 232.671875 90.199219 227.148438 88.960938 C 221.625 87.726562 216.039062 87.242188 210.382812 87.515625 C 207.640625 87.671875 204.921875 88.019531 202.226562 88.558594 C 202.066406 88.589844 201.917969 88.644531 201.777344 88.726562 C 197.695312 75.628906 193.558594 62.546875 189.582031 49.421875 C 187 40.886719 184.46875 32.328125 182.136719 23.726562 C 188.160156 23.023438 194.1875 22.972656 200.222656 23.566406 C 206.257812 24.160156 212.160156 25.386719 217.933594 27.25 C 222.574219 28.742188 228.226562 30.625 230.671875 35.230469 C 232.683594 39.003906 231.398438 44.121094 228.007812 46.664062 C 224.222656 49.492188 218.105469 48.375 215.449219 44.503906 C 215.355469 44.339844 215.230469 44.195312 215.082031 44.078125 C 214.933594 43.960938 214.769531 43.871094 214.585938 43.816406 C 214.402344 43.761719 214.21875 43.742188 214.027344 43.757812 C 213.839844 43.777344 213.660156 43.824219 213.488281 43.910156 C 213.324219 44.003906 213.179688 44.128906 213.0625 44.277344 C 212.945312 44.429688 212.859375 44.597656 212.804688 44.78125 C 212.753906 44.964844 212.738281 45.152344 212.757812 45.339844 C 212.78125 45.53125 212.835938 45.710938 212.929688 45.878906 C 213.304688 46.417969 213.726562 46.925781 214.183594 47.398438 C 214.644531 47.871094 215.140625 48.304688 215.667969 48.695312 C 216.199219 49.089844 216.753906 49.4375 217.339844 49.738281 C 217.925781 50.042969 218.53125 50.296875 219.15625 50.503906 C 219.785156 50.707031 220.421875 50.863281 221.074219 50.964844 C 221.726562 51.070312 222.378906 51.117188 223.039062 51.117188 C 223.699219 51.113281 224.351562 51.058594 225.003906 50.949219 C 225.652344 50.839844 226.292969 50.683594 226.914062 50.472656 C 232.058594 48.617188 235.023438 43.121094 234.453125 37.78125 C 233.789062 31.804688 228.527344 28.242188 223.402344 26.132812 C 217.011719 23.597656 210.402344 21.90625 203.578125 21.054688 C 195.707031 19.992188 187.832031 20 179.960938 21.074219 C 179.773438 21.117188 179.605469 21.199219 179.449219 21.308594 C 179.296875 21.421875 179.167969 21.5625 179.066406 21.722656 C 178.96875 21.886719 178.902344 22.0625 178.871094 22.253906 C 178.839844 22.441406 178.84375 22.628906 178.886719 22.816406 C 181.898438 33.863281 185.164062 44.851562 188.519531 55.800781 C 179.535156 59.6875 170.726562 63.941406 162.089844 68.5625 C 152.90625 73.453125 143.949219 78.703125 135.214844 84.3125 C 126.375 90 117.765625 96.011719 109.390625 102.355469 L 108.886719 102.746094 C 100.730469 86.007812 93.132812 69.019531 86.09375 51.78125 C 84.34375 47.472656 82.625 43.148438 80.941406 38.8125 C 84.355469 39.246094 87.773438 39.648438 91.191406 40.011719 C 95.230469 40.449219 99.269531 40.832031 103.316406 41.160156 C 105.171875 41.316406 105.273438 38.425781 103.421875 38.269531 C 89.234375 37.089844 75.113281 35.328125 61.0625 32.988281 C 57.132812 32.332031 53.214844 31.625 49.300781 30.871094 C 49.117188 30.816406 48.929688 30.800781 48.742188 30.820312 C 48.550781 30.839844 48.371094 30.894531 48.203125 30.980469 C 48.035156 31.070312 47.890625 31.183594 47.765625 31.328125 C 47.640625 31.472656 47.546875 31.632812 47.484375 31.8125 C 47.421875 32 47.398438 32.195312 47.414062 32.390625 C 47.429688 32.589844 47.484375 32.773438 47.574219 32.949219 C 47.667969 33.125 47.789062 33.273438 47.941406 33.402344 C 48.09375 33.527344 48.261719 33.621094 48.453125 33.675781 C 58.152344 35.542969 67.894531 37.125 77.6875 38.429688 C 84.460938 55.984375 91.824219 73.304688 99.769531 90.390625 C 101.980469 95.144531 104.242188 99.878906 106.550781 104.597656 C 99.257812 110.230469 92.164062 116.109375 85.277344 122.238281 C 77.707031 129.007812 70.421875 136.078125 63.425781 143.449219 C 62.550781 144.371094 61.6875 145.316406 60.824219 146.238281 C 60.6875 146.371094 60.582031 146.523438 60.503906 146.699219 C 60.425781 146.871094 60.386719 147.054688 60.378906 147.242188 C 60.371094 147.433594 60.398438 147.617188 60.464844 147.796875 C 60.527344 147.976562 60.621094 148.136719 60.75 148.28125 C 60.878906 148.417969 61.03125 148.527344 61.207031 148.609375 C 61.378906 148.6875 61.5625 148.730469 61.753906 148.738281 C 61.945312 148.742188 62.132812 148.714844 62.3125 148.648438 C 62.492188 148.582031 62.652344 148.484375 62.792969 148.355469 C 69.664062 140.917969 76.84375 133.792969 84.339844 126.976562 C 91.980469 120.007812 99.894531 113.351562 108.089844 107.019531 C 116.285156 100.683594 124.75 94.636719 133.484375 88.871094 C 142.152344 83.179688 151.035156 77.847656 160.132812 72.878906 C 169.085938 67.980469 178.238281 63.472656 187.585938 59.347656 L 189.371094 58.574219 C 190.722656 62.96875 192.082031 67.351562 193.457031 71.730469 C 195.425781 78.027344 197.390625 84.316406 199.355469 90.601562 C 196.660156 91.550781 194.046875 92.6875 191.519531 94.011719 C 188.988281 95.339844 186.570312 96.84375 184.257812 98.523438 C 181.945312 100.199219 179.769531 102.039062 177.726562 104.035156 C 175.683594 106.03125 173.792969 108.164062 172.0625 110.433594 C 170.328125 112.703125 168.769531 115.085938 167.382812 117.585938 C 165.996094 120.082031 164.796875 122.664062 163.785156 125.335938 C 162.777344 128.007812 161.964844 130.738281 161.351562 133.527344 C 160.738281 136.320312 160.328125 139.136719 160.125 141.988281 C 159.773438 148.101562 160.296875 154.144531 161.703125 160.105469 C 163.105469 166.070312 165.328125 171.710938 168.371094 177.027344 C 169.890625 179.691406 171.597656 182.226562 173.496094 184.632812 C 175.394531 187.039062 177.464844 189.292969 179.699219 191.390625 C 181.933594 193.488281 184.3125 195.410156 186.835938 197.152344 C 189.359375 198.894531 191.996094 200.441406 194.75 201.789062 C 205.871094 207.210938 218.554688 209.40625 230.804688 207.289062 C 233.628906 206.78125 236.394531 206.0625 239.105469 205.132812 C 241.816406 204.199219 244.441406 203.066406 246.980469 201.734375 C 249.519531 200.398438 251.9375 198.878906 254.242188 197.171875 C 256.546875 195.464844 258.707031 193.59375 260.726562 191.554688 C 264.828125 187.441406 268.152344 182.773438 270.691406 177.546875 C 273.65625 171.226562 275.398438 164.589844 275.914062 157.628906 C 277.019531 143.902344 274.179688 129.546875 267.195312 117.625 Z M 263.816406 183.445312 C 262.21875 185.644531 260.460938 187.710938 258.542969 189.640625 C 256.628906 191.566406 254.574219 193.339844 252.382812 194.949219 C 250.195312 196.5625 247.894531 198 245.484375 199.257812 C 243.074219 200.515625 240.582031 201.582031 238.003906 202.453125 C 235.269531 203.351562 232.476562 204.027344 229.632812 204.484375 C 226.789062 204.9375 223.925781 205.164062 221.046875 205.164062 C 218.164062 205.160156 215.304688 204.933594 212.457031 204.476562 C 209.613281 204.019531 206.824219 203.34375 204.089844 202.441406 C 201.273438 201.542969 198.542969 200.441406 195.898438 199.132812 C 193.25 197.824219 190.714844 196.328125 188.289062 194.640625 C 185.867188 192.953125 183.582031 191.09375 181.4375 189.0625 C 179.292969 187.035156 177.3125 184.855469 175.492188 182.527344 C 171.949219 177.925781 169.125 172.917969 167.023438 167.503906 C 164.921875 162.089844 163.625 156.492188 163.136719 150.703125 C 162.890625 147.902344 162.863281 145.09375 163.046875 142.289062 C 163.234375 139.480469 163.628906 136.703125 164.238281 133.957031 C 164.847656 131.207031 165.660156 128.523438 166.679688 125.898438 C 167.695312 123.277344 168.90625 120.746094 170.3125 118.308594 C 173.039062 113.5625 176.382812 109.304688 180.347656 105.53125 C 184.3125 101.757812 188.730469 98.625 193.601562 96.132812 C 195.75 95.050781 197.964844 94.128906 200.246094 93.367188 C 203.089844 102.515625 205.90625 111.683594 208.582031 120.886719 C 211.15625 129.703125 213.609375 138.546875 215.839844 147.453125 C 216.289062 149.253906 219.105469 148.597656 218.65625 146.785156 C 214.617188 130.652344 209.855469 114.703125 204.957031 98.808594 C 204.1875 96.335938 203.417969 93.867188 202.652344 91.398438 L 202.914062 91.386719 C 208.203125 90.378906 213.527344 90.109375 218.886719 90.582031 C 224.25 91.054688 229.445312 92.25 234.472656 94.171875 C 239.507812 96.035156 244.210938 98.527344 248.578125 101.652344 C 252.945312 104.773438 256.824219 108.417969 260.214844 112.578125 C 268.085938 122.339844 272.277344 134.820312 273.113281 147.253906 C 273.898438 159.996094 271.371094 172.945312 263.816406 183.445312 Z M 263.816406 183.445312 " fill-opacity="1" fill-rule="nonzero"/></g></g></g><g clip-path="url(#843fb3cd66)"><g clip-path="url(#f90a9fc6b4)"><g clip-path="url(#477e756527)"><path fill="#020203" d="M 119.726562 138.148438 C 119.679688 137.960938 119.601562 137.792969 119.488281 137.636719 C 119.375 137.480469 119.238281 137.355469 119.074219 137.253906 C 118.910156 137.152344 118.734375 137.085938 118.546875 137.054688 C 118.359375 137.023438 118.167969 137.027344 117.984375 137.070312 C 117.796875 137.117188 117.628906 137.199219 117.476562 137.3125 C 117.324219 137.425781 117.199219 137.5625 117.097656 137.726562 C 117 137.886719 116.933594 138.0625 116.898438 138.25 C 116.867188 138.4375 116.871094 138.625 116.910156 138.8125 C 117.546875 143.886719 117.535156 148.964844 116.871094 154.035156 C 116.210938 159.109375 114.921875 164.015625 113.007812 168.761719 C 109.292969 177.789062 103.046875 185.640625 95.570312 191.847656 C 87.910156 198.210938 78.742188 203.128906 68.996094 205.308594 C 64.566406 206.273438 60.09375 206.617188 55.574219 206.34375 C 51.050781 206.070312 46.652344 205.1875 42.371094 203.703125 C 38.15625 202.269531 34.179688 200.335938 30.449219 197.90625 C 26.714844 195.476562 23.339844 192.625 20.324219 189.347656 C 17.242188 185.921875 14.636719 182.167969 12.511719 178.082031 C 10.382812 173.996094 8.800781 169.710938 7.765625 165.222656 C 7.390625 163.613281 7.082031 161.996094 6.839844 160.359375 C 6.597656 158.726562 6.425781 157.085938 6.320312 155.4375 C 6.21875 153.792969 6.179688 152.140625 6.214844 150.492188 C 6.246094 148.839844 6.347656 147.195312 6.515625 145.550781 C 6.6875 143.910156 6.921875 142.277344 7.226562 140.65625 C 7.53125 139.03125 7.902344 137.425781 8.34375 135.832031 C 8.78125 134.242188 9.285156 132.671875 9.855469 131.121094 C 10.421875 129.570312 11.054688 128.046875 11.75 126.550781 C 12.445312 125.050781 13.203125 123.585938 14.019531 122.152344 C 14.835938 120.71875 15.714844 119.320312 16.648438 117.957031 C 17.582031 116.597656 18.570312 115.277344 19.613281 113.996094 C 20.65625 112.714844 21.75 111.480469 22.894531 110.292969 C 24.042969 109.105469 25.234375 107.964844 26.476562 106.875 C 27.714844 105.785156 29 104.75 30.328125 103.769531 C 31.652344 102.785156 33.019531 101.859375 34.421875 100.988281 C 35.824219 100.121094 37.261719 99.3125 38.734375 98.5625 C 43.214844 96.308594 47.914062 94.695312 52.832031 93.726562 C 57.753906 92.757812 62.710938 92.464844 67.710938 92.847656 C 70.347656 93.042969 72.957031 93.417969 75.539062 93.96875 C 75.722656 94.019531 75.90625 94.039062 76.097656 94.019531 C 76.285156 94 76.464844 93.945312 76.632812 93.859375 C 76.800781 93.769531 76.945312 93.652344 77.070312 93.511719 C 77.195312 93.367188 77.289062 93.203125 77.347656 93.023438 C 77.40625 92.84375 77.425781 92.65625 77.40625 92.464844 C 77.390625 92.273438 77.335938 92.09375 77.25 91.921875 C 77.160156 91.753906 77.042969 91.605469 76.898438 91.484375 C 76.75 91.359375 76.585938 91.269531 76.40625 91.207031 C 70.980469 90.003906 65.492188 89.574219 59.945312 89.917969 C 54.402344 90.265625 49.011719 91.371094 43.777344 93.242188 C 39.523438 94.820312 35.492188 96.847656 31.6875 99.320312 C 27.882812 101.792969 24.394531 104.652344 21.222656 107.898438 C 18.035156 111.140625 15.226562 114.6875 12.796875 118.53125 C 10.371094 122.378906 8.378906 126.4375 6.820312 130.710938 C 5.207031 135.265625 4.136719 139.945312 3.617188 144.746094 C 3.097656 149.550781 3.136719 154.351562 3.738281 159.144531 C 4.304688 163.949219 5.445312 168.617188 7.160156 173.140625 C 8.871094 177.664062 11.109375 181.914062 13.867188 185.890625 C 16.59375 189.742188 19.757812 193.1875 23.367188 196.230469 C 26.972656 199.273438 30.902344 201.8125 35.15625 203.851562 C 39.375 205.914062 43.785156 207.398438 48.394531 208.304688 C 53 209.207031 57.644531 209.503906 62.328125 209.191406 C 72.867188 208.378906 82.949219 204.234375 91.675781 198.355469 C 95.890625 195.558594 99.742188 192.328125 103.226562 188.664062 C 106.710938 185 109.746094 180.992188 112.328125 176.644531 C 114.96875 171.992188 116.964844 167.078125 118.304688 161.898438 C 119.648438 156.71875 120.296875 151.457031 120.246094 146.105469 C 120.230469 143.445312 120.054688 140.792969 119.726562 138.148438 Z M 119.726562 138.148438 " fill-opacity="1" fill-rule="nonzero"/></g></g></g></g></g></svg>